<?xml version="1.0" encoding="UTF-8"?>
<svg xmlns="http://www.w3.org/2000/svg" width="480" height="480" viewBox="0 0 480 480">
  <rect x="0" y="0" width="480" height="480" fill="#0f172a" />
  <rect x="3" y="5" width="80" height="40" rx="0" ry="0" fill="transparent" stroke="rgba(255,255,255,0.25)" stroke-width="0" /><text x="43" y="25" text-anchor="middle" dominant-baseline="middle" font-size="24" fill="white" font-family="Arial, sans-serif">00:00</text><rect x="120" y="5" width="30" height="40" rx="0" ry="0" fill="transparent" stroke="rgba(255,255,255,0.25)" stroke-width="0" /><text x="135" y="25" text-anchor="middle" dominant-baseline="middle" font-size="10" fill="white" font-family="Arial, sans-serif"></text><rect x="165" y="5" width="30" height="40" rx="0" ry="0" fill="transparent" stroke="rgba(255,255,255,0.25)" stroke-width="0" /><text x="180" y="25" text-anchor="middle" dominant-baseline="middle" font-size="10" fill="white" font-family="Arial, sans-serif"></text><rect x="220" y="5" width="80" height="40" rx="0" ry="0" fill="transparent" stroke="rgba(255,255,255,0.25)" stroke-width="0" /><text x="260" y="25" text-anchor="middle" dominant-baseline="middle" font-size="24" fill="white" font-family="Arial, sans-serif">0°C</text><rect x="0" y="420" width="80" height="60" rx="0" ry="0" fill="black" stroke="rgba(255,255,255,0.25)" stroke-width="1" /><text x="40" y="450" text-anchor="middle" dominant-baseline="middle" font-size="24" fill="#FFFFFF" font-family="Arial, sans-serif"></text><rect x="80" y="420" width="320" height="60" rx="0" ry="0" fill="black" stroke="rgba(255,255,255,0.25)" stroke-width="1" /><text x="240" y="450" text-anchor="middle" dominant-baseline="middle" font-size="22" fill="#FFFFFF" font-family="Arial, sans-serif"></text><rect x="400" y="420" width="80" height="60" rx="0" ry="0" fill="black" stroke="rgba(255,255,255,0.25)" stroke-width="1" /><text x="440" y="450" text-anchor="middle" dominant-baseline="middle" font-size="24" fill="#FFFFFF" font-family="Arial, sans-serif"></text><rect x="0" y="0" width="480" height="480" rx="0" ry="0" fill="transparent" stroke="rgba(255,255,255,0.25)" stroke-width="1" /><text x="240" y="240" text-anchor="middle" dominant-baseline="middle" font-size="18" fill="#cbd5e1">IMG</text><rect x="3" y="80" width="200" height="90" rx="20" ry="20" fill="red" stroke="black" stroke-width="5" /><text x="103" y="125" text-anchor="middle" dominant-baseline="middle" font-size="24" fill="#e2e8f0" font-family="Arial, sans-serif">btn</text><rect x="20" y="80" width="200" height="90" rx="0" ry="0" fill="#334155" stroke="rgba(255,255,255,0.25)" stroke-width="1" /><text x="120" y="125" text-anchor="middle" dominant-baseline="middle" font-size="24" fill="#e2e8f0" font-family="Arial, sans-serif">CHECK</text><rect x="130" y="80" width="90" height="90" rx="45" ry="45" fill="#0f172a" stroke="black" stroke-width="5" /><text x="175" y="125" text-anchor="middle" dominant-baseline="middle" font-size="24" fill="#e2e8f0" font-family="Arial, sans-serif">obj</text><rect x="0" y="0" width="90" height="90" rx="0" ry="0" fill="transparent" stroke="rgba(255,255,255,0.25)" stroke-width="1" /><text x="45" y="45" text-anchor="middle" dominant-baseline="middle" font-size="18" fill="#cbd5e1">IMG</text><rect x="260" y="80" width="210" height="90" rx="20" ry="20" fill="#334155" stroke="black" stroke-width="5" /><text x="365" y="125" text-anchor="middle" dominant-baseline="middle" font-size="24" fill="#e2e8f0" font-family="Arial, sans-serif">btn</text><rect x="330" y="80" width="145" height="90" rx="0" ry="0" fill="#334155" stroke="rgba(255,255,255,0.25)" stroke-width="1" /><text x="402.5" y="125" text-anchor="middle" dominant-baseline="middle" font-size="24" fill="#e2e8f0" font-family="Arial, sans-serif"> </text><rect x="230" y="80" width="90" height="90" rx="45" ry="45" fill="#0f172a" stroke="black" stroke-width="5" /><text x="275" y="125" text-anchor="middle" dominant-baseline="middle" font-size="24" fill="#e2e8f0" font-family="Arial, sans-serif">obj</text><rect x="0" y="0" width="90" height="90" rx="0" ry="0" fill="transparent" stroke="rgba(255,255,255,0.25)" stroke-width="1" /><text x="45" y="45" text-anchor="middle" dominant-baseline="middle" font-size="18" fill="#cbd5e1">IMG</text><rect x="260" y="180" width="210" height="90" rx="20" ry="20" fill="#334155" stroke="black" stroke-width="5" /><text x="365" y="225" text-anchor="middle" dominant-baseline="middle" font-size="24" fill="#e2e8f0" font-family="Arial, sans-serif">btn</text><rect x="330" y="180" width="145" height="90" rx="0" ry="0" fill="#334155" stroke="rgba(255,255,255,0.25)" stroke-width="1" /><text x="402.5" y="225" text-anchor="middle" dominant-baseline="middle" font-size="24" fill="#e2e8f0" font-family="Arial, sans-serif"> </text><rect x="230" y="180" width="90" height="90" rx="45" ry="45" fill="#0f172a" stroke="black" stroke-width="5" /><text x="275" y="225" text-anchor="middle" dominant-baseline="middle" font-size="24" fill="#e2e8f0" font-family="Arial, sans-serif">obj</text><rect x="0" y="0" width="90" height="90" rx="0" ry="0" fill="transparent" stroke="rgba(255,255,255,0.25)" stroke-width="1" /><text x="45" y="45" text-anchor="middle" dominant-baseline="middle" font-size="18" fill="#cbd5e1">IMG</text><rect x="260" y="280" width="210" height="90" rx="20" ry="20" fill="#334155" stroke="black" stroke-width="5" /><text x="365" y="325" text-anchor="middle" dominant-baseline="middle" font-size="24" fill="#e2e8f0" font-family="Arial, sans-serif">btn</text><rect x="330" y="280" width="145" height="90" rx="0" ry="0" fill="#334155" stroke="rgba(255,255,255,0.25)" stroke-width="1" /><text x="402.5" y="325" text-anchor="middle" dominant-baseline="middle" font-size="24" fill="#e2e8f0" font-family="Arial, sans-serif"> </text><rect x="230" y="280" width="90" height="90" rx="45" ry="45" fill="#0f172a" stroke="black" stroke-width="5" /><text x="275" y="325" text-anchor="middle" dominant-baseline="middle" font-size="24" fill="#e2e8f0" font-family="Arial, sans-serif">obj</text><rect x="0" y="0" width="90" height="90" rx="0" ry="0" fill="transparent" stroke="rgba(255,255,255,0.25)" stroke-width="1" /><text x="45" y="45" text-anchor="middle" dominant-baseline="middle" font-size="18" fill="#cbd5e1">IMG</text><rect x="3" y="180" width="200" height="90" rx="20" ry="20" fill="red" stroke="black" stroke-width="5" /><text x="103" y="225" text-anchor="middle" dominant-baseline="middle" font-size="24" fill="#e2e8f0" font-family="Arial, sans-serif">btn</text><rect x="20" y="180" width="200" height="90" rx="0" ry="0" fill="#334155" stroke="rgba(255,255,255,0.25)" stroke-width="1" /><text x="120" y="225" text-anchor="middle" dominant-baseline="middle" font-size="24" fill="#e2e8f0" font-family="Arial, sans-serif">CHECK</text><rect x="130" y="180" width="90" height="90" rx="45" ry="45" fill="#0f172a" stroke="black" stroke-width="5" /><text x="175" y="225" text-anchor="middle" dominant-baseline="middle" font-size="24" fill="#e2e8f0" font-family="Arial, sans-serif">obj</text><rect x="0" y="0" width="90" height="90" rx="0" ry="0" fill="transparent" stroke="rgba(255,255,255,0.25)" stroke-width="1" /><text x="45" y="45" text-anchor="middle" dominant-baseline="middle" font-size="18" fill="#cbd5e1">IMG</text><rect x="3" y="280" width="200" height="90" rx="20" ry="20" fill="black" stroke="black" stroke-width="5" /><text x="103" y="325" text-anchor="middle" dominant-baseline="middle" font-size="24" fill="#e2e8f0" font-family="Arial, sans-serif">btn</text><rect x="20" y="280" width="200" height="90" rx="0" ry="0" fill="#334155" stroke="rgba(255,255,255,0.25)" stroke-width="1" /><text x="120" y="325" text-anchor="middle" dominant-baseline="middle" font-size="24" fill="#e2e8f0" font-family="Arial, sans-serif">Light</text><rect x="130" y="280" width="90" height="90" rx="45" ry="45" fill="#334155" stroke="black" stroke-width="5" /><text x="175" y="325" text-anchor="middle" dominant-baseline="middle" font-size="24" fill="#e2e8f0" font-family="Arial, sans-serif"></text><rect x="0" y="0" width="480" height="40" rx="0" ry="0" fill="#0f172a" stroke="rgba(255,255,255,0.25)" stroke-width="1" /><text x="240" y="20" text-anchor="middle" dominant-baseline="middle" font-size="24" fill="#e2e8f0" font-family="Arial, sans-serif">obj</text>
</svg>
