<?xml version="1.0" encoding="UTF-8"?>
<svg xmlns="http://www.w3.org/2000/svg" width="480" height="480" viewBox="0 0 480 480">
  <rect x="0" y="0" width="480" height="480" fill="#0f172a" />
  <rect x="0" y="0" width="480" height="480" rx="0" ry="0" fill="#0f172a" stroke="rgba(255,255,255,0.25)" stroke-width="1" /><text x="240" y="240" text-anchor="middle" dominant-baseline="middle" font-size="24" fill="#e2e8f0" font-family="Arial, sans-serif">obj</text><rect x="3" y="10" width="120" height="40" rx="0" ry="0" fill="#334155" stroke="rgba(255,255,255,0.25)" stroke-width="1" /><text x="63" y="30" text-anchor="middle" dominant-baseline="middle" font-size="24" fill="white" font-family="Arial, sans-serif">00:00</text><rect x="375" y="10" width="100" height="40" rx="0" ry="0" fill="#334155" stroke="rgba(255,255,255,0.25)" stroke-width="1" /><text x="425" y="30" text-anchor="middle" dominant-baseline="middle" font-size="24" fill="white" font-family="Arial, sans-serif">0°C</text><rect x="0" y="420" width="80" height="60" rx="0" ry="0" fill="black" stroke="rgba(255,255,255,0.25)" stroke-width="1" /><text x="40" y="450" text-anchor="middle" dominant-baseline="middle" font-size="24" fill="#FFFFFF" font-family="Arial, sans-serif"></text><rect x="80" y="420" width="320" height="60" rx="0" ry="0" fill="black" stroke="rgba(255,255,255,0.25)" stroke-width="1" /><text x="240" y="450" text-anchor="middle" dominant-baseline="middle" font-size="22" fill="#FFFFFF" font-family="Arial, sans-serif"></text><rect x="400" y="420" width="80" height="60" rx="0" ry="0" fill="black" stroke="rgba(255,255,255,0.25)" stroke-width="1" /><text x="440" y="450" text-anchor="middle" dominant-baseline="middle" font-size="24" fill="#FFFFFF" font-family="Arial, sans-serif"></text><rect x="0" y="0" width="480" height="480" rx="0" ry="0" fill="transparent" stroke="rgba(255,255,255,0.25)" stroke-width="1" /><text x="240" y="240" text-anchor="middle" dominant-baseline="middle" font-size="18" fill="#cbd5e1">IMG</text><rect x="3" y="80" width="250" height="90" rx="20" ry="20" fill="red" stroke="black" stroke-width="5" /><text x="128" y="125" text-anchor="middle" dominant-baseline="middle" font-size="24" fill="#e2e8f0" font-family="Arial, sans-serif">btn</text><rect x="25" y="80" width="250" height="90" rx="0" ry="0" fill="#334155" stroke="rgba(255,255,255,0.25)" stroke-width="1" /><text x="150" y="125" text-anchor="middle" dominant-baseline="middle" font-size="24" fill="#e2e8f0" font-family="Arial, sans-serif">CHECK</text><rect x="180" y="80" width="90" height="90" rx="45" ry="45" fill="#0f172a" stroke="black" stroke-width="5" /><text x="225" y="125" text-anchor="middle" dominant-baseline="middle" font-size="24" fill="#e2e8f0" font-family="Arial, sans-serif">obj</text><rect x="0" y="0" width="90" height="90" rx="0" ry="0" fill="transparent" stroke="rgba(255,255,255,0.25)" stroke-width="1" /><text x="45" y="45" text-anchor="middle" dominant-baseline="middle" font-size="18" fill="#cbd5e1">IMG</text><rect x="310" y="80" width="160" height="90" rx="20" ry="20" fill="#334155" stroke="black" stroke-width="5" /><text x="390" y="125" text-anchor="middle" dominant-baseline="middle" font-size="24" fill="#e2e8f0" font-family="Arial, sans-serif">btn</text><rect x="380" y="80" width="95" height="90" rx="0" ry="0" fill="#334155" stroke="rgba(255,255,255,0.25)" stroke-width="1" /><text x="427.5" y="125" text-anchor="middle" dominant-baseline="middle" font-size="24" fill="#e2e8f0" font-family="Arial, sans-serif"> </text><rect x="280" y="80" width="90" height="90" rx="45" ry="45" fill="#0f172a" stroke="black" stroke-width="5" /><text x="325" y="125" text-anchor="middle" dominant-baseline="middle" font-size="24" fill="#e2e8f0" font-family="Arial, sans-serif">obj</text><rect x="0" y="0" width="90" height="90" rx="0" ry="0" fill="transparent" stroke="rgba(255,255,255,0.25)" stroke-width="1" /><text x="45" y="45" text-anchor="middle" dominant-baseline="middle" font-size="18" fill="#cbd5e1">IMG</text><rect x="310" y="180" width="160" height="90" rx="20" ry="20" fill="#334155" stroke="black" stroke-width="5" /><text x="390" y="225" text-anchor="middle" dominant-baseline="middle" font-size="24" fill="#e2e8f0" font-family="Arial, sans-serif">btn</text><rect x="380" y="180" width="95" height="90" rx="0" ry="0" fill="#334155" stroke="rgba(255,255,255,0.25)" stroke-width="1" /><text x="427.5" y="225" text-anchor="middle" dominant-baseline="middle" font-size="24" fill="#e2e8f0" font-family="Arial, sans-serif"> </text><rect x="280" y="180" width="90" height="90" rx="45" ry="45" fill="#0f172a" stroke="black" stroke-width="5" /><text x="325" y="225" text-anchor="middle" dominant-baseline="middle" font-size="24" fill="#e2e8f0" font-family="Arial, sans-serif">obj</text><rect x="0" y="0" width="90" height="90" rx="0" ry="0" fill="transparent" stroke="rgba(255,255,255,0.25)" stroke-width="1" /><text x="45" y="45" text-anchor="middle" dominant-baseline="middle" font-size="18" fill="#cbd5e1">IMG</text><rect x="310" y="280" width="160" height="90" rx="20" ry="20" fill="#334155" stroke="black" stroke-width="5" /><text x="390" y="325" text-anchor="middle" dominant-baseline="middle" font-size="24" fill="#e2e8f0" font-family="Arial, sans-serif">btn</text><rect x="380" y="280" width="95" height="90" rx="0" ry="0" fill="#334155" stroke="rgba(255,255,255,0.25)" stroke-width="1" /><text x="427.5" y="325" text-anchor="middle" dominant-baseline="middle" font-size="24" fill="#e2e8f0" font-family="Arial, sans-serif"> </text><rect x="280" y="280" width="90" height="90" rx="45" ry="45" fill="#0f172a" stroke="black" stroke-width="5" /><text x="325" y="325" text-anchor="middle" dominant-baseline="middle" font-size="24" fill="#e2e8f0" font-family="Arial, sans-serif">obj</text><rect x="0" y="0" width="90" height="90" rx="0" ry="0" fill="transparent" stroke="rgba(255,255,255,0.25)" stroke-width="1" /><text x="45" y="45" text-anchor="middle" dominant-baseline="middle" font-size="18" fill="#cbd5e1">IMG</text><rect x="3" y="180" width="250" height="90" rx="20" ry="20" fill="red" stroke="black" stroke-width="5" /><text x="128" y="225" text-anchor="middle" dominant-baseline="middle" font-size="24" fill="#e2e8f0" font-family="Arial, sans-serif">btn</text><rect x="25" y="180" width="250" height="90" rx="0" ry="0" fill="#334155" stroke="rgba(255,255,255,0.25)" stroke-width="1" /><text x="150" y="225" text-anchor="middle" dominant-baseline="middle" font-size="24" fill="#e2e8f0" font-family="Arial, sans-serif">CHECK</text><rect x="180" y="180" width="90" height="90" rx="45" ry="45" fill="#0f172a" stroke="black" stroke-width="5" /><text x="225" y="225" text-anchor="middle" dominant-baseline="middle" font-size="24" fill="#e2e8f0" font-family="Arial, sans-serif">obj</text><rect x="0" y="0" width="90" height="90" rx="0" ry="0" fill="transparent" stroke="rgba(255,255,255,0.25)" stroke-width="1" /><text x="45" y="45" text-anchor="middle" dominant-baseline="middle" font-size="18" fill="#cbd5e1">IMG</text><rect x="3" y="280" width="200" height="90" rx="20" ry="20" fill="black" stroke="black" stroke-width="5" /><text x="103" y="325" text-anchor="middle" dominant-baseline="middle" font-size="24" fill="#e2e8f0" font-family="Arial, sans-serif">btn</text><rect x="20" y="280" width="200" height="90" rx="0" ry="0" fill="#334155" stroke="rgba(255,255,255,0.25)" stroke-width="1" /><text x="120" y="325" text-anchor="middle" dominant-baseline="middle" font-size="24" fill="#e2e8f0" font-family="Arial, sans-serif">Light</text><rect x="130" y="280" width="90" height="90" rx="45" ry="45" fill="#334155" stroke="black" stroke-width="5" /><text x="175" y="325" text-anchor="middle" dominant-baseline="middle" font-size="24" fill="#e2e8f0" font-family="Arial, sans-serif"></text>
</svg>
